# xmcd CD database file
#
# Track frame offsets:
#	150
#	12743
#	25382
#	38685
#	59748
#	70258
#	81116
#	94096
#	112357
#	128159
#	142229
#	161439
#
# Disc length: 2331 seconds
#
# Revision: 0
# Processed by: cddbd v1.5.1PL0 Copyright (c) Steve Scherf et al.
# Submitted via: CDex 1.40Beta9
#
DISCID=b109190c
DTITLE=Gig Guide - Blues Set
DYEAR=2004
DGENRE=Blues
TTITLE0=Born Under A Bad Sign
TTITLE1=Killing Floor
TTITLE2=Rock Me Baby
TTITLE3=Darlin' You Know I Love You
TTITLE4=Got My Mojo Working
TTITLE5=Crosscut Saw
TTITLE6=Caldonia
TTITLE7=Stormy Monday
TTITLE8=Wang Dang Doodle
TTITLE9=I'm Tore Down
TTITLE10=The Thrill Is Gone
TTITLE11=Boom Boom
EXTD=YEAR: 2004 ID3G: 0
EXTT0=
EXTT1=
EXTT2=
EXTT3=
EXTT4=
EXTT5=
EXTT6=
EXTT7=
EXTT8=
EXTT9=
EXTT10=
EXTT11=
PLAYORDER=
